<?xml version="1.0" encoding="utf-8"?>
<!-- Generator: Adobe Illustrator 26.0.3, SVG Export Plug-In . SVG Version: 6.00 Build 0)  -->
<svg version="1.1" id="Calque_1" xmlns="http://www.w3.org/2000/svg" xmlns:xlink="http://www.w3.org/1999/xlink" x="0px" y="0px"
	 viewBox="0 0 1320 120" style="enable-background:new 0 0 1320 120;" xml:space="preserve">
<style type="text/css">
	.st0{fill:#F7A98F;}
	.st1{fill:none;stroke:#FFFFFF;stroke-width:2;stroke-miterlimit:10;}
	.st2{fill:#FFFFFF;}
	.st3{fill:none;stroke:#FFFFFF;stroke-miterlimit:10;}
	.st4{fill:none;stroke:#F7A98F;stroke-miterlimit:10;}
	.st5{fill:none;stroke:#F7A98F;stroke-width:3;stroke-linecap:round;stroke-linejoin:round;stroke-miterlimit:10;}
	.st6{clip-path:url(#SVGID_00000157270565225312217010000001020875927644617862_);}
</style>
<circle class="st0" cx="180.9" cy="60" r="49"/>
<g>
	<path class="st0" d="M30.1,74.5c1.9,2.8,1.4,6.6-1.7,8.6c-3.1,2.1-6.8,1.1-8.7-1.7c-0.8-1.1-1-2.2-1.2-3.2l2.5-1.6
		c0,1.2,0.2,2.1,0.8,3c1.1,1.6,3.1,2.2,4.8,1c1.7-1.1,2-3.2,0.9-4.9c-0.6-1-1.4-1.4-2.5-1.9l2.5-1.7C28.4,72.7,29.3,73.4,30.1,74.5z
		"/>
	<path class="st0" d="M21.2,63.9l0.9,4.2l4.5-0.9l0.6,3l-11.7,2.4l-0.6-3l4.5-0.9l-0.9-4.2L14,65.4l-0.6-3L25,60l0.6,3L21.2,63.9z"
		/>
	<path class="st0" d="M13.5,55.6l0.5-3l9.1,1.4l0.7-4.8l2.7,0.4l-1.2,7.8L13.5,55.6z"/>
	<path class="st0" d="M21.2,46.1c-3.2-1.8-4.1-5.5-2.3-8.5c1.8-3.1,5.3-4.1,8.5-2.3c3.2,1.8,4.1,5.5,2.3,8.5
		C28,46.8,24.4,47.9,21.2,46.1z M25.9,37.9c-1.9-1.1-3.8-0.4-4.6,1c-0.8,1.4-0.5,3.4,1.5,4.5c1.9,1.1,3.8,0.4,4.6-1.1
		C28.1,41,27.8,39,25.9,37.9z"/>
	<path class="st0" d="M26.7,27.8l6.2-4.9l1.7,2.1l-3.8,3l1.2,1.6l3.4-2.7l1.5,1.9l-3.4,2.7l1.3,1.6l3.8-3l1.7,2.1l-6.2,4.9
		L26.7,27.8z M29.7,20.4l-0.1,3.8l-1.7,1.4l-0.4-3.4L29.7,20.4z"/>
	<path class="st0" d="M52.9,23.6l-4.3,0.7l0.7,4.5l-3,0.5l-1.8-11.8l3-0.5l0.7,4.6l4.3-0.7l-0.7-4.6l3-0.5l1.8,11.8l-3,0.5
		L52.9,23.6z"/>
	<path class="st0" d="M61.5,16.3l7.7,1.7l-0.6,2.6l-4.7-1l-0.4,1.9l4.3,0.9l-0.5,2.4L63,23.9l-0.4,2l4.7,1l-0.6,2.6L59,28L61.5,16.3
		z"/>
	<path class="st0" d="M74.3,20.1l2.7,1.4l-5.4,10.6l-2.7-1.4L74.3,20.1z"/>
	<path class="st0" d="M81.6,40.6l-2.1-2l1.5-8.5l0,0l-5,5.1l-2.1-2l8.4-8.5l2.1,2l-1.5,8.3l0,0l4.9-5l2.1,2L81.6,40.6z"/>
	<path class="st0" d="M93.2,37.4l1.4,2.7l-10.5,5.6l-1.4-2.7L93.2,37.4z"/>
	<path class="st0" d="M98,52.6l-2.6,0.6c0.4-0.9,0.4-2.2,0.2-3.1c-0.2-1-0.7-1.5-1.3-1.4c-0.5,0.1-0.7,0.8-0.8,1.9
		c-0.2,1.7-0.5,3.9-2.8,4.4c-2.2,0.5-4.1-0.8-4.8-3.5c-0.3-1.5-0.2-2.9,0.2-3.9l2.8-0.7c-0.5,1-0.8,2.4-0.5,3.6
		c0.3,1.1,0.9,1.6,1.5,1.5c0.7-0.2,0.8-1,1-2.3c0.2-1.5,0.5-3.5,2.7-4c2-0.5,4,0.8,4.6,3.4C98.4,50.5,98.3,51.7,98,52.6z"/>
	<path class="st0" d="M92.9,71.6c-0.4,1.1-1.6,1.7-2.8,1.3c-1.1-0.4-1.7-1.6-1.3-2.8c0.4-1.1,1.6-1.7,2.8-1.3
		C92.7,69.3,93.3,70.5,92.9,71.6z"/>
	<path class="st0" d="M40.7,94.4c-1.1-0.5-1.6-1.7-1.1-2.8c0.5-1.1,1.7-1.6,2.8-1.1c1.1,0.5,1.6,1.7,1.1,2.8
		C43,94.4,41.8,94.9,40.7,94.4z"/>
</g>
<g>
	<polygon class="st0" points="713,60 704.4,67 710.4,76.4 700.1,80.4 702.9,91.2 691.8,91.8 691.2,102.9 680.4,100.1 676.4,110.4 
		667,104.4 660,113 653,104.4 643.6,110.4 639.6,100.1 628.8,102.9 628.2,91.8 617.1,91.2 619.9,80.4 609.6,76.4 615.6,67 607,60 
		615.6,53 609.6,43.6 619.9,39.6 617.1,28.8 628.2,28.2 628.8,17.1 639.6,19.9 643.6,9.6 653,15.6 660,7 667,15.6 676.4,9.6 
		680.4,19.9 691.2,17.1 691.8,28.2 702.9,28.8 700.1,39.6 710.4,43.6 704.4,53 	"/>
</g>
<path class="st1" d="M203.2,60c0,12.3-10,22.3-22.3,22.3s-22.3-10-22.3-22.3s10-22.3,22.3-22.3"/>
<path class="st1" d="M193,60c0,6.7-5.4,12.1-12.1,12.1c-6.7,0-12.1-5.4-12.1-12.1s5.4-12.1,12.1-12.1"/>
<g>
	<path class="st2" d="M662,55.6v-4.2c0-0.5-0.1-0.8-0.2-1.1c-0.4-1.3-1.9-1.4-2.3-1.4c-1.5,0-2.3,0.7-2.5,1.4
		c-0.1,0.3-0.1,0.8-0.1,1.1v18c0,0.5,0.1,0.7,0.1,0.9c0.4,1.4,2.2,1.4,2.5,1.4c0.1,0,0.8-0.1,1.4-0.2c0.8-0.3,1.2-0.8,1.2-2.3v-4.2
		l9.9,0c0.1,2.9,0.2,7.1-1.4,9.6c-1.6,2.5-4.9,4.1-10.9,4.1c-0.9,0-1.8-0.1-2.8-0.2c-1.1-0.1-7.1-0.4-9.1-5.2
		c-0.6-1.4-0.8-2.6-0.8-5.5V53c0-0.9,0-1.7,0.1-2.6c0.1-1.7,0.5-5,4.4-7c2.3-1.2,5.4-1.5,7.9-1.5c6.3,0,10,2.3,11.3,4.8
		c1,1.8,1,3.6,1.1,5.6v3.3H662z"/>
</g>
<g>
	<path class="st3" d="M662,58.8v-4.2c0-0.5-0.1-0.8-0.2-1.1c-0.4-1.3-1.9-1.4-2.3-1.4c-1.5,0-2.3,0.7-2.5,1.4
		c-0.1,0.3-0.1,0.8-0.1,1.1v18c0,0.5,0.1,0.7,0.1,0.9c0.4,1.4,2.2,1.4,2.5,1.4c0.1,0,0.8-0.1,1.4-0.2c0.8-0.3,1.2-0.8,1.2-2.3v-4.2
		l9.9,0c0.1,2.9,0.2,7.1-1.4,9.6c-1.6,2.5-4.9,4.1-10.9,4.1c-0.9,0-1.8-0.1-2.8-0.2c-1.1-0.1-7.1-0.4-9.1-5.2
		c-0.6-1.4-0.8-2.6-0.8-5.5V56.2c0-0.9,0-1.7,0.1-2.6c0.1-1.7,0.5-5,4.4-7c2.3-1.2,5.4-1.5,7.9-1.5c6.3,0,10,2.3,11.3,4.8
		c1,1.8,1,3.6,1.1,5.6v3.3H662z"/>
</g>
<g>
	<path class="st0" d="M511.1,67.1c0-0.7,1-0.7,2.4-1.5c1-1,1.7-1.6,2.5-2.6c0.8-1,1-1.4,1.6-2.8c0.5-1.3,1.7-3,3.3-7.1
		c-1.6-0.9-3.1-1.7-3.9-2.1c-1.5-1-1.6-1.8-2-2.3c-0.5-0.4-1.8-0.8-2.9-1.7c-1.2-0.9-3-2.3-3.5-3c-0.3-0.7-1.6-2.7-2.5-3.4
		c-0.7-1-1.6-1.8-2.1-3.1c-0.2-0.9-1-0.8-1.7-2c-0.3-1.2-1.1-5.6-1.1-7.6c0-2.1,0.7-3.3,1.4-5c1-1.7,2.2-3.4,2.9-3.8l1.6-1.7
		c0.7-0.8,3.5-2.3,5.4-2.3c1.8,0,3.5,1,6,2.8c2.3,1.7,2.6,3.3,2.9,4c0.5,0.4,1.3,2.2,1.5,2.6c0.4,0.4,0.5,2.3,1.2,3.4
		c0.7,1.2,1.2,5.8,1.2,10.4c0,3.5-1.5,9.4-2.5,12.8c0.7,0.3,1.2,0.7,1.7,0.8c1.3,0.7,0.8,0.9,3.3,2.2l1.5,0.8c1.5-2,3-3.3,3.9-3.9
		c1.4-1.4,3.7-4.8,4.6-5.5c0.7-0.7,1.5-2.2,4.1-4.7c2.5-2.5,4.4-3.5,6-4.8c1.6-1.1,2.8-2.1,3.8-2.9c0.8-1,4-2.4,5.1-2.9
		c1.2-0.7,2.4-1.8,3.3-2.2c0.9-0.2,2.4-0.4,3.1-1.1c0.7-0.7,7.5-2.8,11.4-2.8s7.2,2.7,7.2,6.5c0,1.8-1,4.3-1.5,5.3
		c-0.8,1.1-0.7,1.3-1.6,2.8c-1.2,1.5-1.7,2-2.3,2.6c-0.8,0.5-1.6,0.9-2,1.2c-0.3,0.7-1,1.3-1.8,2.7c-1.3,1.2-4.3,2.9-4.9,3.6
		c-0.4,0.5-3.4,2.1-4.2,2.4c-0.9,0.4-2.8,2.3-3.8,2.5c-0.9,0.2-2.9,1.1-5.2,2.4c-2.3,1.1-8.4,2.2-14.4,2.2c-2.5,0-4.7-0.1-6.7-0.4
		l-0.9,1.7c-0.2,0.7-0.9,1.4-1.8,2.7c-0.8,1.3-0.7,1.6-1.2,3.4c-0.4,1.6-1.5,3.3-2.5,6.3c-0.9,3-0.8,6.1-0.9,7.8
		c-0.1,0.8-0.2,1.8-0.2,2.9c0,1.2,0.1,2.4,0.3,3.1c0.4,1.6,2,4.3,2.5,5.3c0.5,0.9,1.8,0.9,3.4,2.6c1.4,1.5,4.7,1.5,7.4,1.5
		c2.5,0,5.8-1.3,6.9-1.8c1.6-0.5,4.6-2.8,5.6-3.6c1.2-0.4,1.3-1.1,2.5-1.7c1.3-0.7,2.1-1.7,2.5-2.3c0.5-0.2,1.7-1.3,2.6-2.7
		c0.9-1.4,3-3.7,4.3-6.6c1.3-2.9,2-5.2,2-6.6c0-1.5-0.1-2.8-1.6-3.7c-0.8-0.4-1.4-0.8-2.7-0.8c-1.3,0.1-2.7,0.4-3.7,1
		c-1,0.7-2.5,2.1-3.4,2.7c-0.9,0.8-1.5,1.7-2.2,2.7c-0.5,0.9-0.8,1.8-0.9,3.1c-0.1,1.1-1.4,2.4-2.9,2.4c-0.4,0-0.7-0.1-0.7-0.9
		c0-1.2,1.4-3.6,2-4c0.5-0.7,2.3-3.7,3.6-4.2c1.3-0.3,1.4-1.7,3.1-2.6c2-1.2,3.8-2.8,6.8-2.8c3.3,0,5.2,3.3,5.2,5.8
		c0,1.5-0.5,3.6-1.4,5.4c-1,1.7-1.3,3.4-2.3,4.4c-1.1,1.3-1.7,3.1-3.5,5.2c-2,2.2-4.2,4.2-4.9,4.4c-0.5,0.2-1.7,1.4-2.9,2.6
		c-1.3,1.2-2.4,2.2-5.6,3.6c-3.1,1.6-6.5,2.9-10,2.9c-5.4,0-7.3-1.2-9.3-2c-2.2-0.8-5-2.8-5.8-3.8c-1.1-1.2-1.8-2.8-2.7-4.1
		c-0.7-1.5-0.7-7.1-0.7-8.5c0-1.2,0-4,0.7-5.4c0.7-1.6,0.2-2,1-3.5c0.8-1.5,1.8-4.3,2.5-5.2c0.7-0.7,1.2-2.4,3.3-6.1l1.3-2.2l-2.3-1
		c-1.2-0.4-2.6-1.1-3.9-1.7c-0.4,1.1-0.3,1.8-1.2,3c-0.9,1-1.6,3.5-2.2,4.1c-0.4,0.7-0.8,1.5-1,2.3c-0.3,0.9-1.8,2.7-2.9,3.9
		c-1,0.8-1.7,1.5-2.7,1.5C511.5,68.6,511.1,67.4,511.1,67.1z M521.8,50.5c1.3-3.6,1.1-5,1.5-7.2c0.1-0.5,0.2-1.2,0.2-2
		c0-2.1-0.4-4.4-0.5-5.9c0-2.1,0-3.3-0.7-4c-0.3-0.8-0.3-3-1-3.9c-0.5-0.9-1.6-3.5-3.5-6.5c-1.8-2.9-4.1-4.2-5.8-4.2
		c-1.4,0-2.3,1.3-3.1,1.5c-0.9,0.7-1,0.9-2.2,2.3c-1.1,1.5-1.1,3.7-1.1,5.8c0,2.2,0.8,3.8,1,4.9c0.3,1.3,2.3,4.1,3.7,7.1
		c1.5,2.9,4.4,6.3,5.6,7.1c1.2,0.8,2.9,3.1,3.8,3.7C520.3,49.3,521,49.8,521.8,50.5z M534.4,56.1c2.3,0.4,4.8,0.7,6.8,0.7
		c4.4,0,11-1.3,13.7-2.4c2.6-1.3,8-5.2,9-5.8c1.1-0.5,3.4-3.6,5.2-4.9c2-1.2,3.9-5,5.6-6.9c1.6-1.8,2.7-5.6,2.7-8.2
		c0-2.4-1-3.1-3.9-3.1c-1.3,0-2.3,0.5-3.9,0.8c-1.3,0.4-4.2,2.4-6,3c-1.7,0.5-3.6,2.1-5.2,2.7c-1.6,0.7-2.5,1.7-4.1,2.8
		c-1.8,0.9-3.5,2.4-3.9,2.8c-0.4,0.8-2.4,2.6-4.1,4.1c-1.5,1.6-4,5.1-4.8,5.5c-0.9,0.4-2.2,3.6-4.6,5.5
		C536.1,53.7,535.2,54.9,534.4,56.1z"/>
</g>
<g>
	<path class="st0" d="M393.7,96.8c-0.5,2.5-2.2,4.4-5.1,5.8c-2.9,1.4-5.5,1.4-7.9,0.2c-2.4-1.3-4.4-3.7-6.1-7.4l-8.1-17.1
		c-2.8-5.8-3-10.2-0.6-13.1c0.9-1.1,2.1-2,3.7-2.7c5.5-2.6,9.9-0.4,13.2,6.5l2.6,5.4l-5.8,2.7l-2.4-5c-1-2-1.8-3.4-2.6-4.1
		c-0.8-0.7-1.6-0.8-2.6-0.4s-1.5,1.3-1.4,2.4s0.5,2.6,1.4,4.5l8.7,18.3c1,2.1,1.9,3.5,2.7,4.3c0.8,0.7,1.7,0.9,2.7,0.4
		c1-0.5,1.4-1.2,1.4-2.3c-0.1-1.1-0.6-2.7-1.6-4.8l-2.7-5.6l5.9-2.8l2.6,5.6C393.5,91.2,394.2,94.3,393.7,96.8z"/>
	<path class="st0" d="M401.6,95.8L383,56.6l6-2.8l7.5,15.9l5.4-2.5l-7.5-15.9l6-2.8l18.6,39.3l-6,2.8l-8.6-18.2l-5.4,2.5l8.6,18.2
		L401.6,95.8z"/>
	<path class="st0" d="M424.8,84.8l-18.6-39.3l6-2.8l16.2,34.2l7.6-3.6l2.4,5.1L424.8,84.8z"/>
	<path class="st0" d="M455.3,67.5c-0.5,2.5-2.2,4.5-5.2,5.9c-3,1.4-5.7,1.5-8,0.3c-2.3-1.2-4.4-3.8-6.2-7.6l-8.5-18
		c-3.4-7.2-2.2-12.2,3.7-15c3-1.4,5.6-1.6,7.8-0.4c2.2,1.2,4.1,3.6,5.8,7.1l8.5,18C455.1,61.8,455.7,64.9,455.3,67.5z M444.8,67.9
		c0.8,0.7,1.7,0.9,2.8,0.3c1.1-0.5,1.6-1.3,1.5-2.4c-0.1-1.1-0.7-2.8-1.8-5l-8.7-18.3c-0.9-1.9-1.7-3.1-2.5-3.8
		c-0.8-0.7-1.6-0.8-2.7-0.3c-1,0.5-1.5,1.2-1.5,2.3c0,1,0.4,2.5,1.3,4.3l8.7,18.3C443.1,65.7,444,67.2,444.8,67.9z"/>
	<path class="st0" d="M463.9,66.3l-18.6-39.3l13.2-6.2l2.4,5.2l-7.2,3.4l5.4,11.4l6.8-3.2l2.4,5l-6.8,3.2l5.9,12.5l7.4-3.5l2.4,5.2
		L463.9,66.3z M446.1,22.9l-1.6-3.5l7.8-8.9l2.7,5.8L446.1,22.9z"/>
</g>
<g>
	<path class="st4" d="M392.1,98.9c-0.5,2.5-2.2,4.4-5.1,5.8c-2.9,1.4-5.5,1.4-7.9,0.2c-2.4-1.3-4.4-3.7-6.1-7.4l-8.1-17.1
		c-2.8-5.8-3-10.2-0.6-13.1c0.9-1.1,2.1-2,3.7-2.7c5.5-2.6,9.9-0.4,13.2,6.5l2.6,5.4l-5.8,2.7l-2.4-5c-1-2-1.8-3.4-2.6-4.1
		c-0.8-0.7-1.6-0.8-2.6-0.4c-1,0.5-1.5,1.3-1.4,2.4c0.1,1.1,0.5,2.6,1.4,4.5l8.7,18.3c1,2.1,1.9,3.5,2.7,4.3
		c0.8,0.7,1.7,0.9,2.7,0.4s1.4-1.2,1.4-2.3s-0.6-2.7-1.6-4.8l-2.7-5.6l5.9-2.8l2.6,5.6C392,93.4,392.6,96.5,392.1,98.9z"/>
	<path class="st4" d="M400.1,98l-18.6-39.3l6-2.8l7.5,15.9l5.4-2.5l-7.5-15.9l6-2.8l18.6,39.3l-6,2.8l-8.6-18.2l-5.4,2.5l8.6,18.2
		L400.1,98z"/>
	<path class="st4" d="M423.3,87l-18.6-39.3l6-2.8l16.2,34.2l7.6-3.6l2.4,5.1L423.3,87z"/>
	<path class="st4" d="M453.7,69.6c-0.5,2.5-2.2,4.5-5.2,5.9s-5.7,1.5-8,0.3c-2.3-1.2-4.4-3.8-6.2-7.6l-8.5-18
		c-3.4-7.2-2.2-12.2,3.7-15c3-1.4,5.6-1.6,7.8-0.4s4.1,3.6,5.8,7.1l8.5,18C453.5,63.9,454.2,67.1,453.7,69.6z M443.2,70.1
		c0.8,0.7,1.7,0.9,2.8,0.3c1.1-0.5,1.6-1.3,1.5-2.4c-0.1-1.1-0.7-2.8-1.8-5l-8.7-18.3c-0.9-1.9-1.7-3.1-2.5-3.8
		c-0.8-0.7-1.6-0.8-2.7-0.3c-1,0.5-1.5,1.2-1.5,2.3c0,1,0.4,2.5,1.3,4.3l8.7,18.3C441.5,67.8,442.5,69.3,443.2,70.1z"/>
	<path class="st4" d="M462.3,68.5l-18.6-39.3l13.2-6.2l2.4,5.2l-7.2,3.4l5.4,11.4l6.8-3.2l2.4,5L460,48l5.9,12.5l7.4-3.5l2.4,5.2
		L462.3,68.5z M444.5,25.1l-1.6-3.5l7.8-8.9l2.7,5.8L444.5,25.1z"/>
</g>
<path class="st0" d="M330.6,51.4c0-8.4-2.6-10.8-10.9-10.1c-1.6-6.7-3.7-8.1-11.4-7.5c0-5,0.1-10,0-15c-0.2-4.5-3.5-7.7-7.7-7.7
	c-4.1,0-7.3,3-7.7,7.4c-0.2,2.9-0.3,5.7-0.4,8.6c-0.2,5.7-0.4,11.4-0.7,17c-1-0.8-1.5-1.7-1.9-2.6c-2.2-4.9-4.3-9.7-6.5-14.6
	c-2.3-5.2-6-7.1-10.3-5.4c-4.1,1.6-5.5,5.5-3.9,10.7c0.5,1.5,1,3,1.4,4.6c2.4,7.7,4.8,15.4,7.3,23.2c-6.6,3.2-7.8,8.4-6.2,14.8
	c0.6,2.3,0.8,4.6,1.4,6.9c2.6,9.7,8.8,16,18.6,18.1c4,0.9,8.2,0.7,12.4,0.7c15.6,0,26.5-10.9,26.6-26.5
	C330.6,66.5,330.6,59,330.6,51.4z M319.4,48.6c0.1-2.1,1.2-3.7,3.6-3.7c2.5,0,3.7,1.5,3.8,3.9c0,0.5,0,1.1,0,1.6c0,1.6,0,3.2,0,4.8
	c0,1.5,0,3,0,4.6c0,0.5,0,1,0,1.5c-0.1,2.3-1.3,3.9-3.8,3.9c-2.3,0-3.5-1.5-3.6-3.7C319.3,57.1,319.3,52.8,319.4,48.6z M308.2,41.4
	c0-2.3,1.2-3.9,3.6-4c2.4,0,3.7,1.5,3.7,3.9c0,6.1,0,12.3-0.1,18.4c0,2.1-1.3,3.4-3.4,3.5c-2.2,0.1-3.7-1.1-3.8-3.4
	c-0.1-3.2,0-6.4,0-9.5c0,0,0,0,0,0C308.2,47.3,308.2,44.3,308.2,41.4z M272.2,30c-0.7-2.1,0-3.9,2.1-4.7c2.4-1,4.1,0.2,5.1,2.4
	c3,6.6,5.9,13.2,8.8,19.8c0.4,1,0.7,2.2,1.4,2.8c0.9,0.8,2.3,1.7,3.3,1.6c0.8-0.1,2-1.6,2.2-2.6c0.4-3.2,0.3-6.4,0.5-9.6
	c0.2-6.5,0.5-13,0.7-19.4c0.2-3.6,1.6-5.4,4.1-5.3c2.5,0.1,3.9,1.9,3.9,5.5c0,10.3,0.1,20.6-0.1,30.9c0,1-0.8,2.6-1.5,2.8
	c-7,1.8-14,3.4-21.4,5.1C278.3,49.2,275.2,39.6,272.2,30z M303.9,96.8c-3.5,0-7.1,0.3-10.5-0.3c-8.8-1.6-14.4-6.9-16.7-15.5
	c-0.9-3.3-1.4-6.7-1.9-10c-0.5-3.1,1.1-6.1,4-6.9c8-2.2,16-4,24.1-5.9c0.7,4.2-0.8,7-4.6,8.7c-2.4,1-5,1.8-7.5,2.8
	c-3.6,1.4-4.5,3.8-2.9,7.4c0.6,1.3,1.1,2.6,1.9,3.7c0.5,0.6,1.5,0.7,2.3,1.1c0.3-0.9,1-1.9,0.8-2.7c-0.5-1.7-1.4-3.3-2.3-5.2
	c5.5-3,12.3-3,15.1-9.1c2,0.8,3.6,1.9,5.4,2.1c1.8,0.2,3.7-0.5,6-0.9c2.2,2.8,5.5,3.6,9.3,2.3C329.8,83.8,319.5,96.8,303.9,96.8z"/>
<path class="st5" d="M817.9,47c0-10.2-8.3-18.5-18.5-18.5c-9.2,0-16.7,6.6-18.2,15.4c-1.5-8.7-9.1-15.4-18.2-15.4
	c-10.2,0-18.5,8.3-18.5,18.5c0,5.2,2.2,9.9,5.6,13.3l0,0l31,31l29.6-29.6C815,58.3,817.9,53,817.9,47z"/>
<g>
	<defs>
		<path id="SVGID_1_" d="M817.9,47c0-10.2-8.3-18.5-18.5-18.5c-9.2,0-16.7,6.6-18.2,15.4c-1.5-8.7-9.1-15.4-18.2-15.4
			c-10.2,0-18.5,8.3-18.5,18.5c0,5.2,2.2,9.9,5.6,13.3l0,0l31,31l29.6-29.6C815,58.3,817.9,53,817.9,47z"/>
	</defs>
	<clipPath id="SVGID_00000145741723191263070580000009994763204519587254_">
		<use xlink:href="#SVGID_1_"  style="overflow:visible;"/>
	</clipPath>
	<g style="clip-path:url(#SVGID_00000145741723191263070580000009994763204519587254_);">
		<circle class="st0" cx="813.7" cy="32.5" r="1.7"/>
		<circle class="st0" cx="813.7" cy="42.2" r="1.7"/>
		<circle class="st0" cx="813.7" cy="51.9" r="1.7"/>
		<circle class="st0" cx="813.7" cy="61.7" r="1.7"/>
		<circle class="st0" cx="813.7" cy="71.4" r="1.7"/>
		<circle class="st0" cx="813.7" cy="81.1" r="1.7"/>
		<circle class="st0" cx="813.7" cy="90.9" r="1.7"/>
		<circle class="st0" cx="804.4" cy="32.5" r="1.7"/>
		<circle class="st0" cx="804.4" cy="42.2" r="1.7"/>
		<circle class="st0" cx="804.4" cy="51.9" r="1.7"/>
		<circle class="st0" cx="804.4" cy="61.7" r="1.7"/>
		<circle class="st0" cx="804.4" cy="71.4" r="1.7"/>
		<circle class="st0" cx="804.4" cy="81.1" r="1.7"/>
		<circle class="st0" cx="804.4" cy="90.9" r="1.7"/>
		<circle class="st0" cx="795.1" cy="32.5" r="1.7"/>
		<circle class="st0" cx="795.1" cy="42.2" r="1.7"/>
		<circle class="st0" cx="795.1" cy="51.9" r="1.7"/>
		<circle class="st0" cx="795.1" cy="61.7" r="1.7"/>
		<circle class="st0" cx="795.1" cy="71.4" r="1.7"/>
		<circle class="st0" cx="795.1" cy="81.1" r="1.7"/>
		<circle class="st0" cx="795.1" cy="90.9" r="1.7"/>
		<circle class="st0" cx="785.8" cy="32.5" r="1.7"/>
		<circle class="st0" cx="785.8" cy="42.2" r="1.7"/>
		<circle class="st0" cx="785.8" cy="51.9" r="1.7"/>
		<circle class="st0" cx="785.8" cy="61.7" r="1.7"/>
		<circle class="st0" cx="785.8" cy="71.4" r="1.7"/>
		<circle class="st0" cx="785.8" cy="81.1" r="1.7"/>
		<circle class="st0" cx="785.8" cy="90.9" r="1.7"/>
		<circle class="st0" cx="776.5" cy="32.5" r="1.7"/>
		<circle class="st0" cx="776.5" cy="42.2" r="1.7"/>
		<circle class="st0" cx="776.5" cy="51.9" r="1.7"/>
		<circle class="st0" cx="776.5" cy="61.7" r="1.7"/>
		<circle class="st0" cx="776.5" cy="71.4" r="1.7"/>
		<circle class="st0" cx="776.5" cy="81.1" r="1.7"/>
		<circle class="st0" cx="776.5" cy="90.9" r="1.7"/>
		<circle class="st0" cx="767.2" cy="32.5" r="1.7"/>
		<circle class="st0" cx="767.2" cy="42.2" r="1.7"/>
		<circle class="st0" cx="767.2" cy="51.9" r="1.7"/>
		<circle class="st0" cx="767.2" cy="61.7" r="1.7"/>
		<circle class="st0" cx="767.2" cy="71.4" r="1.7"/>
		<circle class="st0" cx="767.2" cy="81.1" r="1.7"/>
		<circle class="st0" cx="767.2" cy="90.9" r="1.7"/>
		<circle class="st0" cx="757.8" cy="32.5" r="1.7"/>
		<circle class="st0" cx="757.8" cy="42.2" r="1.7"/>
		<circle class="st0" cx="757.8" cy="51.9" r="1.7"/>
		<circle class="st0" cx="757.8" cy="61.7" r="1.7"/>
		<circle class="st0" cx="757.8" cy="71.4" r="1.7"/>
		<circle class="st0" cx="757.8" cy="81.1" r="1.7"/>
		<circle class="st0" cx="757.8" cy="90.9" r="1.7"/>
		<circle class="st0" cx="748.5" cy="32.5" r="1.7"/>
		<circle class="st0" cx="748.5" cy="42.2" r="1.7"/>
		<circle class="st0" cx="748.5" cy="51.9" r="1.7"/>
		<circle class="st0" cx="748.5" cy="61.7" r="1.7"/>
		<circle class="st0" cx="748.5" cy="71.4" r="1.7"/>
		<circle class="st0" cx="748.5" cy="81.1" r="1.7"/>
		<circle class="st0" cx="748.5" cy="90.9" r="1.7"/>
	</g>
</g>
<g>
	<path class="st0" d="M72.1,93.5c1.1,3.4-0.8,6.5-4.5,7.7l-3.6,1.1l-3.6-11.4l3.6-1.1C67.8,88.6,71,90.1,72.1,93.5z M66.1,98.7
		l0.8-0.3c1.9-0.6,2.9-2.1,2.3-4.1c-0.6-2-2.2-2.7-4.2-2.1l-0.8,0.3L66.1,98.7z"/>
	<path class="st0" d="M84.7,92.3l-2.3-1.6L79,93.2l0.8,2.7l-2.5,1.9l-3.6-12.2l2.8-2.1l10.7,7L84.7,92.3z M78.2,90.7l2.1-1.5L77,87
		L78.2,90.7z"/>
</g>
<circle class="st0" cx="1020.8" cy="60" r="49"/>
<g>
	<path class="st0" d="M870,74.5c1.9,2.8,1.4,6.6-1.7,8.6c-3.1,2.1-6.8,1.1-8.7-1.7c-0.8-1.1-1-2.2-1.2-3.2l2.5-1.6
		c0,1.2,0.2,2.1,0.8,3c1.1,1.6,3.1,2.2,4.8,1c1.7-1.1,2-3.2,0.9-4.9c-0.6-1-1.4-1.4-2.5-1.9l2.5-1.7C868.3,72.7,869.2,73.4,870,74.5
		z"/>
	<path class="st0" d="M861.1,63.9l0.9,4.2l4.5-0.9l0.6,3l-11.7,2.4l-0.6-3l4.5-0.9l-0.9-4.2l-4.5,0.9l-0.6-3L865,60l0.6,3
		L861.1,63.9z"/>
	<path class="st0" d="M853.4,55.6l0.5-3l9.1,1.4l0.7-4.8l2.7,0.4l-1.2,7.8L853.4,55.6z"/>
	<path class="st0" d="M861.1,46.1c-3.2-1.8-4.1-5.5-2.3-8.5c1.8-3.1,5.3-4.1,8.5-2.3c3.2,1.8,4.1,5.5,2.3,8.5
		C867.9,46.8,864.3,47.9,861.1,46.1z M865.8,37.9c-1.9-1.1-3.8-0.4-4.6,1c-0.8,1.4-0.5,3.4,1.5,4.5c1.9,1.1,3.8,0.4,4.6-1.1
		C868,41,867.7,39,865.8,37.9z"/>
	<path class="st0" d="M866.6,27.8l6.2-4.9l1.7,2.1l-3.8,3l1.2,1.6l3.4-2.7l1.5,1.9l-3.4,2.7l1.3,1.6l3.8-3l1.7,2.1l-6.2,4.9
		L866.6,27.8z M869.6,20.4l-0.1,3.8l-1.7,1.4l-0.4-3.4L869.6,20.4z"/>
	<path class="st0" d="M892.8,23.6l-4.3,0.7l0.7,4.5l-3,0.5l-1.8-11.8l3-0.5l0.7,4.6l4.3-0.7l-0.7-4.6l3-0.5l1.8,11.8l-3,0.5
		L892.8,23.6z"/>
	<path class="st0" d="M901.4,16.3l7.7,1.7l-0.6,2.6l-4.7-1l-0.4,1.9l4.3,0.9l-0.5,2.4l-4.3-0.9l-0.4,2l4.7,1l-0.6,2.6l-7.7-1.7
		L901.4,16.3z"/>
	<path class="st0" d="M914.2,20.1l2.7,1.4l-5.4,10.6l-2.7-1.4L914.2,20.1z"/>
	<path class="st0" d="M921.5,40.6l-2.1-2l1.5-8.5l0,0l-5,5.1l-2.1-2l8.4-8.5l2.1,2l-1.5,8.3l0,0l4.9-5l2.1,2L921.5,40.6z"/>
	<path class="st0" d="M933.1,37.4l1.4,2.7L924,45.7l-1.4-2.7L933.1,37.4z"/>
	<path class="st0" d="M937.9,52.6l-2.6,0.6c0.4-0.9,0.4-2.2,0.2-3.1c-0.2-1-0.7-1.5-1.3-1.4c-0.5,0.1-0.7,0.8-0.8,1.9
		c-0.2,1.7-0.5,3.9-2.8,4.4c-2.2,0.5-4.1-0.8-4.8-3.5c-0.3-1.5-0.2-2.9,0.2-3.9l2.8-0.7c-0.5,1-0.8,2.4-0.5,3.6
		c0.3,1.1,0.9,1.6,1.5,1.5c0.7-0.2,0.8-1,1-2.3c0.2-1.5,0.5-3.5,2.7-4c2-0.5,4,0.8,4.6,3.4C938.3,50.5,938.2,51.7,937.9,52.6z"/>
	<path class="st0" d="M932.8,71.6c-0.4,1.1-1.6,1.7-2.8,1.3c-1.1-0.4-1.7-1.6-1.3-2.8c0.4-1.1,1.6-1.7,2.8-1.3
		C932.6,69.3,933.2,70.5,932.8,71.6z"/>
	<path class="st0" d="M880.6,94.4c-1.1-0.5-1.6-1.7-1.1-2.8c0.5-1.1,1.7-1.6,2.8-1.1c1.1,0.5,1.6,1.7,1.1,2.8
		C882.9,94.4,881.7,94.9,880.6,94.4z"/>
</g>
<path class="st1" d="M1043.1,60c0,12.3-10,22.3-22.3,22.3s-22.3-10-22.3-22.3s10-22.3,22.3-22.3"/>
<path class="st1" d="M1032.9,60c0,6.7-5.4,12.1-12.1,12.1s-12.1-5.4-12.1-12.1s5.4-12.1,12.1-12.1"/>
<g>
	<path class="st0" d="M1233.6,96.8c-0.5,2.5-2.2,4.4-5.1,5.8c-2.9,1.4-5.5,1.4-7.9,0.2c-2.4-1.3-4.4-3.7-6.1-7.4l-8.1-17.1
		c-2.8-5.8-3-10.2-0.6-13.1c0.9-1.1,2.1-2,3.7-2.7c5.5-2.6,9.9-0.4,13.2,6.5l2.6,5.4l-5.8,2.7l-2.4-5c-1-2-1.8-3.4-2.6-4.1
		c-0.8-0.7-1.6-0.8-2.6-0.4c-1,0.5-1.5,1.3-1.4,2.4s0.5,2.6,1.4,4.5l8.7,18.3c1,2.1,1.9,3.5,2.7,4.3c0.8,0.7,1.7,0.9,2.7,0.4
		c1-0.5,1.4-1.2,1.4-2.3s-0.6-2.7-1.6-4.8l-2.7-5.6l5.9-2.8l2.6,5.6C1233.4,91.2,1234.1,94.3,1233.6,96.8z"/>
	<path class="st0" d="M1241.5,95.8l-18.6-39.3l6-2.8l7.5,15.9l5.4-2.5l-7.5-15.9l6-2.8l18.6,39.3l-6,2.8l-8.6-18.2l-5.4,2.5
		l8.6,18.2L1241.5,95.8z"/>
	<path class="st0" d="M1264.7,84.8l-18.6-39.3l6-2.8l16.2,34.2l7.6-3.6l2.4,5.1L1264.7,84.8z"/>
	<path class="st0" d="M1295.2,67.5c-0.5,2.5-2.2,4.5-5.2,5.9c-3,1.4-5.7,1.5-8,0.3c-2.3-1.2-4.4-3.8-6.2-7.6l-8.5-18
		c-3.4-7.2-2.2-12.2,3.7-15c3-1.4,5.6-1.6,7.8-0.4s4.1,3.6,5.8,7.1l8.5,18C1295,61.8,1295.7,64.9,1295.2,67.5z M1284.7,67.9
		c0.8,0.7,1.7,0.9,2.8,0.3c1.1-0.5,1.6-1.3,1.5-2.4c-0.1-1.1-0.7-2.8-1.8-5l-8.7-18.3c-0.9-1.9-1.7-3.1-2.5-3.8
		c-0.8-0.7-1.6-0.8-2.7-0.3c-1,0.5-1.5,1.2-1.5,2.3c0,1,0.4,2.5,1.3,4.3l8.7,18.3C1283,65.7,1283.9,67.2,1284.7,67.9z"/>
	<path class="st0" d="M1303.8,66.3l-18.6-39.3l13.2-6.2l2.4,5.2l-7.2,3.4l5.4,11.4l6.8-3.2l2.4,5l-6.8,3.2l5.9,12.5l7.4-3.5l2.4,5.2
		L1303.8,66.3z M1286,22.9l-1.6-3.5l7.8-8.9l2.7,5.8L1286,22.9z"/>
</g>
<g>
	<path class="st4" d="M1232,98.9c-0.5,2.5-2.2,4.4-5.1,5.8c-2.9,1.4-5.5,1.4-7.9,0.2c-2.4-1.3-4.4-3.7-6.1-7.4l-8.1-17.1
		c-2.8-5.8-3-10.2-0.6-13.1c0.9-1.1,2.1-2,3.7-2.7c5.5-2.6,9.9-0.4,13.2,6.5l2.6,5.4l-5.8,2.7l-2.4-5c-1-2-1.8-3.4-2.6-4.1
		c-0.8-0.7-1.6-0.8-2.6-0.4s-1.5,1.3-1.4,2.4c0.1,1.1,0.5,2.6,1.4,4.5l8.7,18.3c1,2.1,1.9,3.5,2.7,4.3c0.8,0.7,1.7,0.9,2.7,0.4
		s1.4-1.2,1.4-2.3c-0.1-1.1-0.6-2.7-1.6-4.8l-2.7-5.6l5.9-2.8l2.6,5.6C1231.9,93.4,1232.5,96.5,1232,98.9z"/>
	<path class="st4" d="M1240,98l-18.6-39.3l6-2.8l7.5,15.9l5.4-2.5l-7.5-15.9l6-2.8l18.6,39.3l-6,2.8l-8.6-18.2l-5.4,2.5l8.6,18.2
		L1240,98z"/>
	<path class="st4" d="M1263.2,87l-18.6-39.3l6-2.8l16.2,34.2l7.6-3.6l2.4,5.1L1263.2,87z"/>
	<path class="st4" d="M1293.6,69.6c-0.5,2.5-2.2,4.5-5.2,5.9s-5.7,1.5-8,0.3c-2.3-1.2-4.4-3.8-6.2-7.6l-8.5-18
		c-3.4-7.2-2.2-12.2,3.7-15c3-1.4,5.6-1.6,7.8-0.4c2.2,1.2,4.1,3.6,5.8,7.1l8.5,18C1293.4,63.9,1294.1,67.1,1293.6,69.6z
		 M1283.1,70.1c0.8,0.7,1.7,0.9,2.8,0.3c1.1-0.5,1.6-1.3,1.5-2.4c-0.1-1.1-0.7-2.8-1.8-5l-8.7-18.3c-0.9-1.9-1.7-3.1-2.5-3.8
		c-0.8-0.7-1.6-0.8-2.7-0.3c-1,0.5-1.5,1.2-1.5,2.3c0,1,0.4,2.5,1.3,4.3l8.7,18.3C1281.4,67.8,1282.4,69.3,1283.1,70.1z"/>
	<path class="st4" d="M1302.2,68.5l-18.6-39.3l13.2-6.2l2.4,5.2l-7.2,3.4l5.4,11.4l6.8-3.2l2.4,5l-6.8,3.2l5.9,12.5l7.4-3.5l2.4,5.2
		L1302.2,68.5z M1284.4,25.1l-1.6-3.5l7.8-8.9l2.7,5.8L1284.4,25.1z"/>
</g>
<path class="st0" d="M1170.5,51.4c0-8.4-2.6-10.8-10.9-10.1c-1.6-6.7-3.7-8.1-11.4-7.5c0-5,0.1-10,0-15c-0.2-4.5-3.5-7.7-7.7-7.7
	c-4.1,0-7.3,3-7.7,7.4c-0.2,2.9-0.3,5.7-0.4,8.6c-0.2,5.7-0.4,11.4-0.7,17c-1-0.8-1.5-1.7-1.9-2.6c-2.2-4.9-4.3-9.7-6.5-14.6
	c-2.3-5.2-6-7.1-10.3-5.4c-4.1,1.6-5.5,5.5-3.9,10.7c0.5,1.5,1,3,1.4,4.6c2.4,7.7,4.8,15.4,7.3,23.2c-6.6,3.2-7.8,8.4-6.2,14.8
	c0.6,2.3,0.8,4.6,1.4,6.9c2.6,9.7,8.8,16,18.6,18.1c4,0.9,8.2,0.7,12.4,0.7c15.6,0,26.5-10.9,26.6-26.5
	C1170.5,66.5,1170.5,59,1170.5,51.4z M1159.3,48.6c0.1-2.1,1.2-3.7,3.6-3.7c2.5,0,3.7,1.5,3.8,3.9c0,0.5,0,1.1,0,1.6
	c0,1.6,0,3.2,0,4.8c0,1.5,0,3,0,4.6c0,0.5,0,1,0,1.5c-0.1,2.3-1.3,3.9-3.8,3.9c-2.3,0-3.5-1.5-3.6-3.7
	C1159.2,57.1,1159.2,52.8,1159.3,48.6z M1148.2,41.4c0-2.3,1.2-3.9,3.6-4c2.4,0,3.7,1.5,3.7,3.9c0,6.1,0,12.3-0.1,18.4
	c0,2.1-1.3,3.4-3.4,3.5c-2.2,0.1-3.7-1.1-3.8-3.4c-0.1-3.2,0-6.4,0-9.5c0,0,0,0,0,0C1148.1,47.3,1148.1,44.3,1148.2,41.4z
	 M1112.2,30c-0.7-2.1,0-3.9,2.1-4.7c2.4-1,4.1,0.2,5.1,2.4c3,6.6,5.9,13.2,8.8,19.8c0.4,1,0.7,2.2,1.4,2.8c0.9,0.8,2.3,1.7,3.3,1.6
	c0.8-0.1,2-1.6,2.2-2.6c0.4-3.2,0.3-6.4,0.5-9.6c0.2-6.5,0.5-13,0.7-19.4c0.2-3.6,1.6-5.4,4.1-5.3c2.5,0.1,3.9,1.9,3.9,5.5
	c0,10.3,0.1,20.6-0.1,30.9c0,1-0.8,2.6-1.5,2.8c-7,1.8-14,3.4-21.4,5.1C1118.2,49.2,1115.2,39.6,1112.2,30z M1143.8,96.8
	c-3.5,0-7.1,0.3-10.5-0.3c-8.8-1.6-14.4-6.9-16.7-15.5c-0.9-3.3-1.4-6.7-1.9-10c-0.5-3.1,1.1-6.1,4-6.9c8-2.2,16-4,24.1-5.9
	c0.7,4.2-0.8,7-4.6,8.7c-2.4,1-5,1.8-7.5,2.8c-3.6,1.4-4.5,3.8-2.9,7.4c0.6,1.3,1.1,2.6,1.9,3.7c0.5,0.6,1.5,0.7,2.3,1.1
	c0.3-0.9,1-1.9,0.8-2.7c-0.5-1.7-1.4-3.3-2.3-5.2c5.5-3,12.3-3,15.1-9.1c2,0.8,3.6,1.9,5.4,2.1c1.8,0.2,3.7-0.5,6-0.9
	c2.2,2.8,5.5,3.6,9.3,2.3C1169.7,83.8,1159.4,96.8,1143.8,96.8z"/>
<g>
	<path class="st0" d="M912,93.5c1.1,3.4-0.8,6.5-4.5,7.7l-3.6,1.1l-3.6-11.4l3.6-1.1C907.7,88.6,910.9,90.1,912,93.5z M906,98.7
		l0.8-0.3c1.9-0.6,2.9-2.1,2.3-4.1c-0.6-2-2.2-2.7-4.2-2.1l-0.8,0.3L906,98.7z"/>
	<path class="st0" d="M924.6,92.3l-2.3-1.6l-3.4,2.5l0.8,2.7l-2.5,1.9l-3.6-12.2l2.8-2.1l10.7,7L924.6,92.3z M918.1,90.7l2.1-1.5
		l-3.3-2.2L918.1,90.7z"/>
</g>
<path id="SVGID_x5F_00000028323740748746900720000005192171681464327855_x5F_" style="fill:none;" d="M-202.5,211.5
	c0,17-13.8,30.7-30.7,30.7s-30.7-13.8-30.7-30.7s13.8-30.7,30.7-30.7S-202.5,194.5-202.5,211.5z"/>
<text><textPath  xlink:href="#SVGID_x5F_00000028323740748746900720000005192171681464327855_x5F_" startOffset="58050.8281%">
<tspan  style="fill:#FF5252; font-family:'HeroNew-ExtraBold'; font-size:16px; letter-spacing:67;">Chloé Heinis  •          •</tspan></textPath>
</text>
<path id="SVGID_x5F_00000181072585993150943120000012181729252131307417_x5F_" style="fill:none;" d="M-191.2,199.1
	c-6.9-23.2-31.2-36.4-54.4-29.5s-36.4,31.2-29.5,54.4c6.9,23.2,31.2,36.4,54.4,29.5C-197.6,246.6-184.3,222.2-191.2,199.1z"/>
<text><textPath  xlink:href="#SVGID_x5F_00000181072585993150943120000012181729252131307417_x5F_" startOffset="93.75%">
<tspan  style="fill:#FF5252; font-family:'HeroNew-ExtraBold'; font-size:16px; letter-spacing:67;"> DA</tspan></textPath>
</text>
</svg>
