<?xml version="1.0" encoding="utf-8"?>
<!-- Generator: Adobe Illustrator 26.0.3, SVG Export Plug-In . SVG Version: 6.00 Build 0)  -->
<svg version="1.1" id="Calque_1" xmlns="http://www.w3.org/2000/svg" xmlns:xlink="http://www.w3.org/1999/xlink" x="0px" y="0px"
	 viewBox="0 0 1320 120" style="enable-background:new 0 0 1320 120;" xml:space="preserve">
<style type="text/css">
	.st0{fill:none;stroke:#FFFFFF;stroke-width:2;stroke-miterlimit:10;}
	.st1{fill:#FFFFFF;}
	.st2{fill:none;stroke:#FFFFFF;stroke-miterlimit:10;}
	.st3{fill:none;stroke:#FFFFFF;stroke-width:3;stroke-linecap:round;stroke-linejoin:round;stroke-miterlimit:10;}
	.st4{clip-path:url(#SVGID_00000026163598800376794250000017641950335942930341_);}
</style>
<g>
	<path class="st0" d="M202.3,60c0,12.3-10,22.3-22.3,22.3s-22.3-10-22.3-22.3s10-22.3,22.3-22.3"/>
	<path class="st0" d="M192.1,60c0,6.7-5.4,12.1-12.1,12.1s-12.1-5.4-12.1-12.1s5.4-12.1,12.1-12.1"/>
</g>
<g>
	<path class="st1" d="M662,55.6v-4.2c0-0.5-0.1-0.8-0.2-1.1c-0.4-1.3-1.9-1.4-2.3-1.4c-1.5,0-2.3,0.7-2.5,1.4
		c-0.1,0.3-0.1,0.8-0.1,1.1v18c0,0.5,0.1,0.7,0.1,0.9c0.4,1.4,2.2,1.4,2.5,1.4c0.1,0,0.8-0.1,1.4-0.2c0.8-0.3,1.2-0.8,1.2-2.3v-4.2
		l9.9,0c0.1,2.9,0.2,7.1-1.4,9.6c-1.6,2.5-4.9,4.1-10.9,4.1c-0.9,0-1.8-0.1-2.8-0.2c-1.1-0.1-7.1-0.4-9.1-5.2
		c-0.6-1.4-0.8-2.6-0.8-5.5V53c0-0.9,0-1.7,0.1-2.6c0.1-1.7,0.5-5,4.4-7c2.3-1.2,5.4-1.5,7.9-1.5c6.3,0,10,2.3,11.3,4.8
		c1,1.8,1,3.6,1.1,5.6v3.3H662z"/>
</g>
<g>
	<path class="st2" d="M662,58.8v-4.2c0-0.5-0.1-0.8-0.2-1.1c-0.4-1.3-1.9-1.4-2.3-1.4c-1.5,0-2.3,0.7-2.5,1.4
		c-0.1,0.3-0.1,0.8-0.1,1.1v18c0,0.5,0.1,0.7,0.1,0.9c0.4,1.4,2.2,1.4,2.5,1.4c0.1,0,0.8-0.1,1.4-0.2c0.8-0.3,1.2-0.8,1.2-2.3v-4.2
		l9.9,0c0.1,2.9,0.2,7.1-1.4,9.6c-1.6,2.5-4.9,4.1-10.9,4.1c-0.9,0-1.8-0.1-2.8-0.2c-1.1-0.1-7.1-0.4-9.1-5.2
		c-0.6-1.4-0.8-2.6-0.8-5.5V56.2c0-0.9,0-1.7,0.1-2.6c0.1-1.7,0.5-5,4.4-7c2.3-1.2,5.4-1.5,7.9-1.5c6.3,0,10,2.3,11.3,4.8
		c1,1.8,1,3.6,1.1,5.6v3.3H662z"/>
</g>
<g>
	<path class="st1" d="M518.7,63.8c0-0.5,0.7-0.5,1.7-1.1c0.7-0.7,1.2-1.1,1.7-1.8c0.5-0.7,0.7-1,1.1-2c0.4-0.9,1.2-2.1,2.3-4.9
		c-1.1-0.6-2.2-1.2-2.7-1.4c-1.1-0.7-1.1-1.3-1.4-1.6c-0.4-0.3-1.3-0.5-2-1.2c-0.8-0.6-2.1-1.6-2.4-2.1c-0.2-0.5-1.1-1.9-1.7-2.3
		c-0.5-0.7-1.1-1.3-1.4-2.2c-0.2-0.6-0.7-0.5-1.2-1.4c-0.2-0.8-0.8-3.9-0.8-5.3c0-1.4,0.5-2.3,1-3.5c0.7-1.2,1.5-2.3,2-2.7l1.1-1.2
		c0.5-0.5,2.4-1.6,3.8-1.6c1.3,0,2.4,0.7,4.2,2c1.6,1.2,1.8,2.3,2,2.8c0.4,0.3,0.9,1.5,1.1,1.8c0.3,0.3,0.4,1.6,0.8,2.3
		c0.5,0.8,0.8,4,0.8,7.3c0,2.4-1.1,6.6-1.7,8.9c0.5,0.2,0.8,0.5,1.2,0.5c0.9,0.5,0.5,0.6,2.3,1.5l1.1,0.5c1.1-1.4,2.1-2.3,2.7-2.7
		c1-1,2.6-3.3,3.2-3.9c0.5-0.5,1.1-1.5,2.9-3.3c1.7-1.7,3.1-2.4,4.2-3.3c1.1-0.8,2-1.4,2.7-2c0.5-0.7,2.8-1.7,3.6-2
		c0.8-0.5,1.7-1.3,2.3-1.5c0.6-0.2,1.7-0.3,2.2-0.8c0.5-0.5,5.2-2,8-2c2.7,0,5,1.9,5,4.5c0,1.3-0.7,3-1.1,3.7
		c-0.5,0.8-0.5,0.9-1.1,2c-0.8,1.1-1.2,1.4-1.6,1.8c-0.5,0.4-1.1,0.6-1.4,0.8c-0.2,0.5-0.7,0.9-1.3,1.9c-0.9,0.8-3,2-3.4,2.5
		c-0.3,0.4-2.3,1.4-3,1.7c-0.6,0.3-2,1.6-2.7,1.7c-0.6,0.2-2,0.8-3.6,1.7c-1.6,0.8-5.8,1.5-10.1,1.5c-1.7,0-3.3-0.1-4.7-0.3
		l-0.6,1.2c-0.2,0.5-0.6,1-1.3,1.9c-0.5,0.9-0.5,1.1-0.8,2.3c-0.3,1.1-1.1,2.3-1.7,4.4c-0.6,2.1-0.5,4.2-0.6,5.5
		c-0.1,0.5-0.2,1.3-0.2,2c0,0.8,0.1,1.7,0.2,2.2c0.3,1.1,1.4,3,1.7,3.7c0.4,0.6,1.3,0.6,2.3,1.8c1,1.1,3.3,1.1,5.2,1.1
		c1.7,0,4-0.9,4.9-1.3c1.1-0.4,3.2-2,3.9-2.5c0.8-0.3,0.9-0.8,1.7-1.2c0.9-0.5,1.4-1.2,1.7-1.6c0.4-0.2,1.2-0.9,1.8-1.9
		c0.6-1,2.1-2.6,3-4.6s1.4-3.6,1.4-4.6c0-1.1-0.1-2-1.1-2.6c-0.5-0.3-1-0.5-1.9-0.5c-0.9,0.1-1.9,0.3-2.6,0.7
		c-0.7,0.5-1.7,1.4-2.3,1.9c-0.6,0.5-1.1,1.2-1.5,1.9c-0.4,0.6-0.5,1.3-0.6,2.2c-0.1,0.8-1,1.7-2,1.7c-0.3,0-0.5-0.1-0.5-0.6
		c0-0.8,1-2.5,1.4-2.8c0.4-0.5,1.6-2.6,2.5-3c0.9-0.2,1-1.2,2.2-1.8c1.4-0.8,2.7-2,4.8-2c2.3,0,3.6,2.3,3.6,4c0,1.1-0.4,2.5-1,3.8
		c-0.7,1.2-0.9,2.3-1.6,3.1c-0.8,0.9-1.2,2.2-2.4,3.6c-1.4,1.5-3,3-3.4,3.1c-0.4,0.2-1.2,1-2,1.8c-0.9,0.8-1.7,1.5-3.9,2.5
		c-2.2,1.1-4.5,2-7,2c-3.8,0-5.1-0.8-6.5-1.4c-1.5-0.5-3.5-2-4-2.7c-0.8-0.8-1.3-2-1.9-2.9c-0.5-1.1-0.5-4.9-0.5-5.9
		c0-0.8,0-2.8,0.5-3.8c0.5-1.1,0.2-1.4,0.7-2.4c0.5-1.1,1.3-3,1.7-3.6c0.5-0.5,0.8-1.7,2.3-4.2l0.9-1.5l-1.6-0.7
		c-0.8-0.3-1.8-0.8-2.7-1.2c-0.3,0.8-0.2,1.3-0.8,2.1c-0.6,0.7-1.1,2.4-1.5,2.9c-0.3,0.5-0.5,1.1-0.7,1.6c-0.2,0.6-1.3,1.9-2,2.7
		c-0.7,0.5-1.2,1.1-1.9,1.1C519,64.8,518.7,64,518.7,63.8z M526.2,52.2c0.9-2.5,0.8-3.5,1.1-5c0.1-0.4,0.2-0.8,0.2-1.4
		c0-1.4-0.3-3.1-0.4-4.1c0-1.4,0-2.3-0.5-2.8c-0.2-0.5-0.2-2.1-0.7-2.7c-0.4-0.6-1.1-2.4-2.4-4.5c-1.3-2-2.9-3-4-3
		c-1,0-1.6,0.9-2.2,1.1c-0.6,0.5-0.7,0.6-1.5,1.6c-0.8,1.1-0.8,2.6-0.8,4c0,1.5,0.5,2.7,0.7,3.4c0.2,0.9,1.6,2.9,2.6,4.9
		c1.1,2,3.1,4.4,3.9,4.9c0.8,0.5,2,2.2,2.7,2.6C525.2,51.3,525.6,51.7,526.2,52.2z M535,56.1c1.6,0.3,3.3,0.5,4.8,0.5
		c3.1,0,7.7-0.9,9.5-1.7c1.8-0.9,5.6-3.6,6.3-4c0.8-0.4,2.3-2.5,3.6-3.4c1.4-0.8,2.7-3.5,3.9-4.9c1.1-1.3,1.9-3.9,1.9-5.8
		c0-1.7-0.7-2.2-2.7-2.2c-0.9,0-1.6,0.4-2.7,0.5c-0.9,0.3-3,1.7-4.2,2.1c-1.2,0.4-2.5,1.4-3.6,1.9c-1.1,0.5-1.7,1.2-2.9,2
		c-1.3,0.6-2.4,1.7-2.7,2c-0.3,0.5-1.7,1.8-2.9,2.9c-1.1,1.1-2.8,3.6-3.3,3.9c-0.6,0.3-1.5,2.5-3.2,3.9
		C536.2,54.5,535.6,55.3,535,56.1z"/>
</g>
<g>
	<g>
		<path class="st1" d="M401.5,83.9c-0.3,1.6-1.4,2.9-3.3,3.8c-1.9,0.9-3.6,0.9-5.2,0.1c-1.5-0.8-2.9-2.4-4-4.8l-5.3-11.2
			c-1.8-3.8-1.9-6.7-0.4-8.6c0.6-0.7,1.4-1.3,2.4-1.8c3.6-1.7,6.5-0.3,8.7,4.3l1.7,3.5l-3.8,1.8l-1.6-3.3c-0.6-1.3-1.2-2.2-1.7-2.7
			c-0.5-0.5-1.1-0.5-1.7-0.2c-0.7,0.3-1,0.8-0.9,1.5s0.3,1.7,0.9,3l5.7,12c0.7,1.4,1.2,2.3,1.8,2.8c0.5,0.5,1.1,0.6,1.8,0.3
			c0.6-0.3,0.9-0.8,0.9-1.5c0-0.7-0.4-1.8-1.1-3.2l-1.7-3.7l3.8-1.8l1.7,3.6C401.4,80.2,401.8,82.3,401.5,83.9z"/>
		<path class="st1" d="M406.7,83.2l-12.2-25.7l3.9-1.9l4.9,10.4l3.5-1.7L402,54l3.9-1.9l12.2,25.7l-3.9,1.9l-5.7-11.9l-3.5,1.7
			l5.7,11.9L406.7,83.2z"/>
		<path class="st1" d="M421.9,76l-12.2-25.7l3.9-1.9l10.6,22.4l5-2.3l1.6,3.3L421.9,76z"/>
		<path class="st1" d="M441.9,64.7c-0.3,1.7-1.5,3-3.4,3.9s-3.7,1-5.2,0.2c-1.5-0.8-2.9-2.5-4-5L423.6,52c-2.2-4.7-1.4-8,2.4-9.8
			c2-0.9,3.7-1,5.1-0.2s2.7,2.3,3.8,4.7l5.6,11.8C441.8,60.9,442.2,63,441.9,64.7z M435,65c0.5,0.5,1.1,0.6,1.8,0.2
			c0.7-0.3,1-0.9,1-1.6c-0.1-0.7-0.4-1.8-1.1-3.3l-5.7-12c-0.6-1.2-1.1-2.1-1.6-2.5c-0.5-0.5-1.1-0.5-1.7-0.2c-0.7,0.3-1,0.8-1,1.5
			s0.3,1.6,0.9,2.8l5.7,12C433.9,63.5,434.5,64.5,435,65z"/>
		<path class="st1" d="M447.5,63.9l-12.2-25.7l8.6-4.1l1.6,3.4l-4.7,2.2l3.5,7.5l4.5-2.1l1.6,3.3l-4.5,2.1l3.9,8.2l4.9-2.3l1.6,3.4
			L447.5,63.9z M435.9,35.5l-1.1-2.3l5.1-5.9l1.8,3.8L435.9,35.5z"/>
	</g>
	<g>
		<path class="st2" d="M400.5,85.3c-0.3,1.6-1.4,2.9-3.3,3.8c-1.9,0.9-3.6,0.9-5.2,0.1c-1.5-0.8-2.9-2.4-4-4.8l-5.3-11.2
			c-1.8-3.8-1.9-6.7-0.4-8.6c0.6-0.7,1.4-1.3,2.4-1.8c3.6-1.7,6.5-0.3,8.7,4.3l1.7,3.5l-3.8,1.8l-1.6-3.3c-0.6-1.3-1.2-2.2-1.7-2.7
			c-0.5-0.5-1.1-0.5-1.7-0.2c-0.7,0.3-1,0.8-0.9,1.5c0,0.7,0.3,1.7,0.9,3l5.7,12c0.7,1.4,1.2,2.3,1.8,2.8c0.5,0.5,1.1,0.6,1.8,0.3
			c0.6-0.3,0.9-0.8,0.9-1.5c0-0.7-0.4-1.8-1.1-3.2l-1.7-3.7l3.8-1.8l1.7,3.6C400.4,81.6,400.8,83.7,400.5,85.3z"/>
		<path class="st2" d="M405.7,84.6l-12.2-25.7l3.9-1.9l4.9,10.4l3.5-1.7L401,55.4l3.9-1.9l12.2,25.7l-3.9,1.9l-5.7-11.9l-3.5,1.7
			l5.7,11.9L405.7,84.6z"/>
		<path class="st2" d="M420.9,77.4l-12.2-25.7l3.9-1.9l10.6,22.4l5-2.3l1.6,3.3L420.9,77.4z"/>
		<path class="st2" d="M440.9,66.1c-0.3,1.7-1.5,3-3.4,3.9c-2,0.9-3.7,1-5.2,0.2c-1.5-0.8-2.9-2.5-4-5l-5.6-11.8
			c-2.2-4.7-1.4-8,2.4-9.8c2-0.9,3.7-1,5.1-0.2s2.7,2.3,3.8,4.7l5.6,11.8C440.7,62.3,441.2,64.4,440.9,66.1z M434,66.4
			c0.5,0.5,1.1,0.6,1.8,0.2c0.7-0.3,1-0.9,1-1.6c-0.1-0.7-0.4-1.8-1.1-3.3l-5.7-12c-0.6-1.2-1.1-2.1-1.6-2.5s-1.1-0.5-1.7-0.2
			c-0.7,0.3-1,0.8-1,1.5c0,0.7,0.3,1.6,0.9,2.8l5.7,12C432.9,64.9,433.5,65.9,434,66.4z"/>
		<path class="st2" d="M446.5,65.3l-12.2-25.7l8.6-4.1l1.6,3.4l-4.7,2.2l3.5,7.5l4.5-2.1l1.6,3.3l-4.5,2.1l3.9,8.2l4.9-2.3l1.6,3.4
			L446.5,65.3z M434.8,36.9l-1.1-2.3l5.1-5.9l1.8,3.8L434.8,36.9z"/>
	</g>
</g>
<path class="st1" d="M331.1,51.4c0-8.4-2.6-10.8-10.9-10.1c-1.6-6.7-3.7-8.1-11.4-7.5c0-5,0.1-10,0-15c-0.2-4.5-3.5-7.7-7.7-7.7
	c-4.1,0-7.3,3-7.7,7.4c-0.2,2.9-0.3,5.7-0.4,8.6c-0.2,5.7-0.4,11.4-0.7,17c-1-0.8-1.5-1.7-1.9-2.6c-2.2-4.9-4.3-9.7-6.5-14.6
	c-2.3-5.2-6-7.1-10.3-5.4c-4.1,1.6-5.5,5.5-3.9,10.7c0.5,1.5,1,3,1.4,4.6c2.4,7.7,4.8,15.4,7.3,23.2c-6.6,3.2-7.8,8.4-6.2,14.8
	c0.6,2.3,0.8,4.6,1.4,6.9c2.6,9.7,8.8,16,18.6,18.1c4,0.9,8.2,0.7,12.4,0.7c15.6,0,26.5-10.9,26.6-26.5
	C331.1,66.5,331.1,59,331.1,51.4z M319.9,48.6c0.1-2.1,1.2-3.7,3.6-3.7c2.5,0,3.7,1.5,3.8,3.9c0,0.5,0,1.1,0,1.6c0,1.6,0,3.2,0,4.8
	c0,1.5,0,3,0,4.6c0,0.5,0,1,0,1.5c-0.1,2.3-1.3,3.9-3.8,3.9c-2.3,0-3.5-1.5-3.6-3.7C319.8,57.1,319.8,52.8,319.9,48.6z M308.7,41.4
	c0-2.3,1.2-3.9,3.6-4c2.4,0,3.7,1.5,3.7,3.9c0,6.1,0,12.3-0.1,18.4c0,2.1-1.3,3.4-3.4,3.5c-2.2,0.1-3.7-1.1-3.8-3.4
	c-0.1-3.2,0-6.4,0-9.5c0,0,0,0,0,0C308.7,47.3,308.7,44.3,308.7,41.4z M272.7,30c-0.7-2.1,0-3.9,2.1-4.7c2.4-1,4.1,0.2,5.1,2.4
	c3,6.6,5.9,13.2,8.8,19.8c0.4,1,0.7,2.2,1.4,2.8c0.9,0.8,2.3,1.7,3.3,1.6c0.8-0.1,2-1.6,2.2-2.6c0.4-3.2,0.3-6.4,0.5-9.6
	c0.2-6.5,0.5-13,0.7-19.4c0.2-3.6,1.6-5.4,4.1-5.3c2.5,0.1,3.9,1.9,3.9,5.5c0,10.3,0.1,20.6-0.1,30.9c0,1-0.8,2.6-1.5,2.8
	c-7,1.8-14,3.4-21.4,5.1C278.8,49.2,275.7,39.6,272.7,30z M304.4,96.8c-3.5,0-7.1,0.3-10.5-0.3c-8.8-1.6-14.4-6.9-16.7-15.5
	c-0.9-3.3-1.4-6.7-1.9-10c-0.5-3.1,1.1-6.1,4-6.9c8-2.2,16-4,24.1-5.9c0.7,4.2-0.8,7-4.6,8.7c-2.4,1-5,1.8-7.5,2.8
	c-3.6,1.4-4.5,3.8-2.9,7.4c0.6,1.3,1.1,2.6,1.9,3.7c0.5,0.6,1.5,0.7,2.3,1.1c0.3-0.9,1-1.9,0.8-2.7c-0.5-1.7-1.4-3.3-2.3-5.2
	c5.5-3,12.3-3,15.1-9.1c2,0.8,3.6,1.9,5.4,2.1c1.8,0.2,3.7-0.5,6-0.9c2.2,2.8,5.5,3.6,9.3,2.3C330.3,83.8,320,96.8,304.4,96.8z"/>
<path class="st3" d="M817.9,47c0-10.2-8.3-18.5-18.5-18.5c-9.2,0-16.7,6.6-18.2,15.4c-1.5-8.7-9.1-15.4-18.2-15.4
	c-10.2,0-18.5,8.3-18.5,18.5c0,5.2,2.2,9.9,5.6,13.3l0,0l31,31l29.6-29.6C815,58.3,817.9,53,817.9,47z"/>
<g>
	<defs>
		<path id="SVGID_1_" d="M817.9,47c0-10.2-8.3-18.5-18.5-18.5c-9.2,0-16.7,6.6-18.2,15.4c-1.5-8.7-9.1-15.4-18.2-15.4
			c-10.2,0-18.5,8.3-18.5,18.5c0,5.2,2.2,9.9,5.6,13.3l0,0l31,31l29.6-29.6C815,58.3,817.9,53,817.9,47z"/>
	</defs>
	<clipPath id="SVGID_00000106127144978438755800000017656156800554788231_">
		<use xlink:href="#SVGID_1_"  style="overflow:visible;"/>
	</clipPath>
	<g style="clip-path:url(#SVGID_00000106127144978438755800000017656156800554788231_);">
		<circle class="st1" cx="813.7" cy="32.5" r="1.7"/>
		<circle class="st1" cx="813.7" cy="42.2" r="1.7"/>
		<circle class="st1" cx="813.7" cy="51.9" r="1.7"/>
		<circle class="st1" cx="813.7" cy="61.7" r="1.7"/>
		<circle class="st1" cx="813.7" cy="71.4" r="1.7"/>
		<circle class="st1" cx="813.7" cy="81.1" r="1.7"/>
		<circle class="st1" cx="813.7" cy="90.9" r="1.7"/>
		<circle class="st1" cx="804.4" cy="32.5" r="1.7"/>
		<circle class="st1" cx="804.4" cy="42.2" r="1.7"/>
		<circle class="st1" cx="804.4" cy="51.9" r="1.7"/>
		<circle class="st1" cx="804.4" cy="61.7" r="1.7"/>
		<circle class="st1" cx="804.4" cy="71.4" r="1.7"/>
		<circle class="st1" cx="804.4" cy="81.1" r="1.7"/>
		<circle class="st1" cx="804.4" cy="90.9" r="1.7"/>
		<circle class="st1" cx="795.1" cy="32.5" r="1.7"/>
		<circle class="st1" cx="795.1" cy="42.2" r="1.7"/>
		<circle class="st1" cx="795.1" cy="51.9" r="1.7"/>
		<circle class="st1" cx="795.1" cy="61.7" r="1.7"/>
		<circle class="st1" cx="795.1" cy="71.4" r="1.7"/>
		<circle class="st1" cx="795.1" cy="81.1" r="1.7"/>
		<circle class="st1" cx="795.1" cy="90.9" r="1.7"/>
		<circle class="st1" cx="785.8" cy="32.5" r="1.7"/>
		<circle class="st1" cx="785.8" cy="42.2" r="1.7"/>
		<circle class="st1" cx="785.8" cy="51.9" r="1.7"/>
		<circle class="st1" cx="785.8" cy="61.7" r="1.7"/>
		<circle class="st1" cx="785.8" cy="71.4" r="1.7"/>
		<circle class="st1" cx="785.8" cy="81.1" r="1.7"/>
		<circle class="st1" cx="785.8" cy="90.9" r="1.7"/>
		<circle class="st1" cx="776.5" cy="32.5" r="1.7"/>
		<circle class="st1" cx="776.5" cy="42.2" r="1.7"/>
		<circle class="st1" cx="776.5" cy="51.9" r="1.7"/>
		<circle class="st1" cx="776.5" cy="61.7" r="1.7"/>
		<circle class="st1" cx="776.5" cy="71.4" r="1.7"/>
		<circle class="st1" cx="776.5" cy="81.1" r="1.7"/>
		<circle class="st1" cx="776.5" cy="90.9" r="1.7"/>
		<circle class="st1" cx="767.2" cy="32.5" r="1.7"/>
		<circle class="st1" cx="767.2" cy="42.2" r="1.7"/>
		<circle class="st1" cx="767.2" cy="51.9" r="1.7"/>
		<circle class="st1" cx="767.2" cy="61.7" r="1.7"/>
		<circle class="st1" cx="767.2" cy="71.4" r="1.7"/>
		<circle class="st1" cx="767.2" cy="81.1" r="1.7"/>
		<circle class="st1" cx="767.2" cy="90.9" r="1.7"/>
		<circle class="st1" cx="757.8" cy="32.5" r="1.7"/>
		<circle class="st1" cx="757.8" cy="42.2" r="1.7"/>
		<circle class="st1" cx="757.8" cy="51.9" r="1.7"/>
		<circle class="st1" cx="757.8" cy="61.7" r="1.7"/>
		<circle class="st1" cx="757.8" cy="71.4" r="1.7"/>
		<circle class="st1" cx="757.8" cy="81.1" r="1.7"/>
		<circle class="st1" cx="757.8" cy="90.9" r="1.7"/>
		<circle class="st1" cx="748.5" cy="32.5" r="1.7"/>
		<circle class="st1" cx="748.5" cy="42.2" r="1.7"/>
		<circle class="st1" cx="748.5" cy="51.9" r="1.7"/>
		<circle class="st1" cx="748.5" cy="61.7" r="1.7"/>
		<circle class="st1" cx="748.5" cy="71.4" r="1.7"/>
		<circle class="st1" cx="748.5" cy="81.1" r="1.7"/>
		<circle class="st1" cx="748.5" cy="90.9" r="1.7"/>
	</g>
</g>
<g>
	<g>
		<path class="st1" d="M34.2,76.3c1.9,2.8,1.4,6.6-1.7,8.6c-3.1,2.1-6.8,1.1-8.7-1.7c-0.8-1.1-1-2.2-1.2-3.2l2.5-1.6
			c0,1.2,0.2,2.1,0.8,3c1.1,1.6,3.1,2.2,4.8,1c1.7-1.1,2-3.2,0.9-4.9c-0.6-1-1.4-1.4-2.5-1.9l2.5-1.7C32.6,74.5,33.5,75.1,34.2,76.3
			z"/>
		<path class="st1" d="M25.4,65.6l0.9,4.2l4.5-0.9l0.6,3l-11.7,2.4l-0.6-3l4.5-0.9l-0.9-4.2l-4.5,0.9l-0.6-3l11.7-2.4l0.6,3
			L25.4,65.6z"/>
		<path class="st1" d="M17.7,57.4l0.5-3l9.1,1.4L28,51l2.7,0.4l-1.2,7.8L17.7,57.4z"/>
		<path class="st1" d="M25.4,47.8c-3.2-1.8-4.1-5.5-2.3-8.5c1.8-3.1,5.3-4.1,8.5-2.3c3.2,1.8,4.1,5.5,2.3,8.5
			C32.2,48.6,28.6,49.6,25.4,47.8z M30.1,39.6c-1.9-1.1-3.8-0.4-4.6,1c-0.8,1.4-0.5,3.4,1.5,4.5c1.9,1.1,3.8,0.4,4.6-1.1
			C32.3,42.7,32,40.7,30.1,39.6z"/>
		<path class="st1" d="M30.9,29.5l6.2-4.9l1.7,2.1l-3.8,3l1.2,1.6l3.4-2.7l1.5,1.9l-3.4,2.7l1.3,1.6l3.8-3l1.7,2.1l-6.2,4.9
			L30.9,29.5z M33.8,22.1l-0.1,3.8L32,27.3l-0.4-3.4L33.8,22.1z"/>
		<path class="st1" d="M57,25.3L52.8,26l0.7,4.5l-3,0.5l-1.8-11.8l3-0.5l0.7,4.6l4.3-0.7l-0.7-4.6l3-0.5l1.8,11.8l-3,0.5L57,25.3z"
			/>
		<path class="st1" d="M65.7,18.1l7.7,1.7l-0.6,2.6l-4.7-1l-0.4,1.9l4.3,0.9l-0.5,2.4l-4.3-0.9l-0.4,2l4.7,1l-0.6,2.6l-7.7-1.7
			L65.7,18.1z"/>
		<path class="st1" d="M78.5,21.9l2.7,1.4l-5.4,10.6L73,32.5L78.5,21.9z"/>
		<path class="st1" d="M85.7,42.4l-2.1-2l1.5-8.5l0,0l-5,5.1l-2.1-2l8.4-8.5l2.1,2l-1.5,8.3l0,0l4.9-5l2.1,2L85.7,42.4z"/>
		<path class="st1" d="M97.4,39.2l1.4,2.7l-10.5,5.6l-1.4-2.7L97.4,39.2z"/>
		<path class="st1" d="M102.2,54.4L99.6,55c0.4-0.9,0.4-2.2,0.2-3.1c-0.2-1-0.7-1.5-1.3-1.4c-0.5,0.1-0.7,0.8-0.8,1.9
			c-0.2,1.7-0.5,3.9-2.8,4.4c-2.2,0.5-4.1-0.8-4.8-3.5c-0.3-1.5-0.2-2.9,0.2-3.9l2.8-0.7c-0.5,1-0.8,2.4-0.5,3.6
			c0.3,1.1,0.9,1.6,1.5,1.5c0.7-0.2,0.8-1,1-2.3c0.2-1.5,0.5-3.5,2.7-4c2-0.5,4,0.8,4.6,3.4C102.6,52.3,102.5,53.4,102.2,54.4z"/>
		<path class="st1" d="M97.1,73.4c-0.4,1.1-1.6,1.7-2.8,1.3c-1.1-0.4-1.7-1.6-1.3-2.8c0.4-1.1,1.6-1.7,2.8-1.3
			C96.9,71,97.5,72.2,97.1,73.4z"/>
		<path class="st1" d="M44.9,96.2c-1.1-0.5-1.6-1.7-1.1-2.8c0.5-1.1,1.7-1.6,2.8-1.1c1.1,0.5,1.6,1.7,1.1,2.8
			C47.2,96.2,46,96.7,44.9,96.2z"/>
	</g>
	<g>
		<path class="st1" d="M76.3,95.2c1.1,3.4-0.8,6.5-4.5,7.7l-3.6,1.1l-3.6-11.4l3.6-1.1C71.9,90.3,75.2,91.8,76.3,95.2z M70.3,100.5
			l0.8-0.3c1.9-0.6,2.9-2.1,2.3-4.1c-0.6-2-2.2-2.7-4.2-2.1l-0.8,0.3L70.3,100.5z"/>
		<path class="st1" d="M88.9,94l-2.3-1.6l-3.4,2.5l0.8,2.7l-2.5,1.9l-3.6-12.2l2.8-2.1l10.7,7L88.9,94z M82.3,92.5l2.1-1.5l-3.3-2.2
			L82.3,92.5z"/>
	</g>
</g>
<g>
	<path class="st0" d="M1041.7,60c0,12.3-10,22.3-22.3,22.3c-12.3,0-22.3-10-22.3-22.3s10-22.3,22.3-22.3"/>
	<path class="st0" d="M1031.5,60c0,6.7-5.4,12.1-12.1,12.1c-6.7,0-12.1-5.4-12.1-12.1s5.4-12.1,12.1-12.1"/>
</g>
<g>
	<g>
		<path class="st1" d="M1240.9,83.9c-0.3,1.6-1.4,2.9-3.3,3.8c-1.9,0.9-3.6,0.9-5.2,0.1c-1.5-0.8-2.9-2.4-4-4.8l-5.3-11.2
			c-1.8-3.8-1.9-6.7-0.4-8.6c0.6-0.7,1.4-1.3,2.4-1.8c3.6-1.7,6.5-0.3,8.7,4.3l1.7,3.5l-3.8,1.8l-1.6-3.3c-0.6-1.3-1.2-2.2-1.7-2.7
			c-0.5-0.5-1.1-0.5-1.7-0.2c-0.7,0.3-1,0.8-0.9,1.5c0,0.7,0.3,1.7,0.9,3l5.7,12c0.7,1.4,1.2,2.3,1.8,2.8c0.5,0.5,1.1,0.6,1.8,0.3
			c0.6-0.3,0.9-0.8,0.9-1.5c0-0.7-0.4-1.8-1.1-3.2l-1.7-3.7l3.8-1.8l1.7,3.6C1240.8,80.2,1241.2,82.3,1240.9,83.9z"/>
		<path class="st1" d="M1246.1,83.2l-12.2-25.7l3.9-1.9l4.9,10.4l3.5-1.7l-4.9-10.4l3.9-1.9l12.2,25.7l-3.9,1.9l-5.7-11.9l-3.5,1.7
			l5.7,11.9L1246.1,83.2z"/>
		<path class="st1" d="M1261.3,76l-12.2-25.7l3.9-1.9l10.6,22.4l5-2.3l1.6,3.3L1261.3,76z"/>
		<path class="st1" d="M1281.2,64.7c-0.3,1.7-1.5,3-3.4,3.9s-3.7,1-5.2,0.2c-1.5-0.8-2.9-2.5-4-5L1263,52c-2.2-4.7-1.4-8,2.4-9.8
			c2-0.9,3.7-1,5.1-0.2c1.4,0.8,2.7,2.3,3.8,4.7l5.6,11.8C1281.1,60.9,1281.5,63,1281.2,64.7z M1274.4,65c0.5,0.5,1.1,0.6,1.8,0.2
			c0.7-0.3,1-0.9,1-1.6c-0.1-0.7-0.4-1.8-1.1-3.3l-5.7-12c-0.6-1.2-1.1-2.1-1.6-2.5c-0.5-0.5-1.1-0.5-1.7-0.2s-1,0.8-1,1.5
			s0.3,1.6,0.9,2.8l5.7,12C1273.2,63.5,1273.8,64.5,1274.4,65z"/>
		<path class="st1" d="M1286.9,63.9l-12.2-25.7l8.6-4.1l1.6,3.4l-4.7,2.2l3.5,7.5l4.5-2.1l1.6,3.3l-4.5,2.1l3.9,8.2l4.9-2.3l1.6,3.4
			L1286.9,63.9z M1275.2,35.5l-1.1-2.3l5.1-5.9l1.8,3.8L1275.2,35.5z"/>
	</g>
	<g>
		<path class="st2" d="M1239.9,85.3c-0.3,1.6-1.4,2.9-3.3,3.8c-1.9,0.9-3.6,0.9-5.2,0.1c-1.5-0.8-2.9-2.4-4-4.8l-5.3-11.2
			c-1.8-3.8-1.9-6.7-0.4-8.6c0.6-0.7,1.4-1.3,2.4-1.8c3.6-1.7,6.5-0.3,8.7,4.3l1.7,3.5l-3.8,1.8l-1.6-3.3c-0.6-1.3-1.2-2.2-1.7-2.7
			c-0.5-0.5-1.1-0.5-1.7-0.2c-0.7,0.3-1,0.8-0.9,1.5c0,0.7,0.3,1.7,0.9,3l5.7,12c0.7,1.4,1.2,2.3,1.8,2.8c0.5,0.5,1.1,0.6,1.8,0.3
			c0.6-0.3,0.9-0.8,0.9-1.5c0-0.7-0.4-1.8-1.1-3.2l-1.7-3.7l3.8-1.8l1.7,3.6C1239.8,81.6,1240.2,83.7,1239.9,85.3z"/>
		<path class="st2" d="M1245.1,84.6l-12.2-25.7l3.9-1.9l4.9,10.4l3.5-1.7l-4.9-10.4l3.9-1.9l12.2,25.7l-3.9,1.9l-5.7-11.9l-3.5,1.7
			l5.7,11.9L1245.1,84.6z"/>
		<path class="st2" d="M1260.3,77.4l-12.2-25.7l3.9-1.9l10.6,22.4l5-2.3l1.6,3.3L1260.3,77.4z"/>
		<path class="st2" d="M1280.2,66.1c-0.3,1.7-1.5,3-3.4,3.9c-2,0.9-3.7,1-5.2,0.2c-1.5-0.8-2.9-2.5-4-5l-5.6-11.8
			c-2.2-4.7-1.4-8,2.4-9.8c2-0.9,3.7-1,5.1-0.2c1.4,0.8,2.7,2.3,3.8,4.7l5.6,11.8C1280.1,62.3,1280.5,64.4,1280.2,66.1z
			 M1273.4,66.4c0.5,0.5,1.1,0.6,1.8,0.2c0.7-0.3,1-0.9,1-1.6c-0.1-0.7-0.4-1.8-1.1-3.3l-5.7-12c-0.6-1.2-1.1-2.1-1.6-2.5
			c-0.5-0.5-1.1-0.5-1.7-0.2s-1,0.8-1,1.5s0.3,1.6,0.9,2.8l5.7,12C1272.2,64.9,1272.8,65.9,1273.4,66.4z"/>
		<path class="st2" d="M1285.9,65.3l-12.2-25.7l8.6-4.1l1.6,3.4l-4.7,2.2l3.5,7.5l4.5-2.1l1.6,3.3l-4.5,2.1l3.9,8.2l4.9-2.3l1.6,3.4
			L1285.9,65.3z M1274.2,36.9l-1.1-2.3l5.1-5.9l1.8,3.8L1274.2,36.9z"/>
	</g>
</g>
<path class="st1" d="M1170.4,51.4c0-8.4-2.6-10.8-10.9-10.1c-1.6-6.7-3.7-8.1-11.4-7.5c0-5,0.1-10,0-15c-0.2-4.5-3.5-7.7-7.7-7.7
	c-4.1,0-7.3,3-7.7,7.4c-0.2,2.9-0.3,5.7-0.4,8.6c-0.2,5.7-0.4,11.4-0.7,17c-1-0.8-1.5-1.7-1.9-2.6c-2.2-4.9-4.3-9.7-6.5-14.6
	c-2.3-5.2-6-7.1-10.3-5.4c-4.1,1.6-5.5,5.5-3.9,10.7c0.5,1.5,1,3,1.4,4.6c2.4,7.7,4.8,15.4,7.3,23.2c-6.6,3.2-7.8,8.4-6.2,14.8
	c0.6,2.3,0.8,4.6,1.4,6.9c2.6,9.7,8.8,16,18.6,18.1c4,0.9,8.2,0.7,12.4,0.7c15.6,0,26.5-10.9,26.6-26.5
	C1170.5,66.5,1170.4,59,1170.4,51.4z M1159.3,48.6c0.1-2.1,1.2-3.7,3.6-3.7c2.5,0,3.7,1.5,3.8,3.9c0,0.5,0,1.1,0,1.6
	c0,1.6,0,3.2,0,4.8c0,1.5,0,3,0,4.6c0,0.5,0,1,0,1.5c-0.1,2.3-1.3,3.9-3.8,3.9c-2.3,0-3.5-1.5-3.6-3.7
	C1159.1,57.1,1159.1,52.8,1159.3,48.6z M1148.1,41.4c0-2.3,1.2-3.9,3.6-4c2.4,0,3.7,1.5,3.7,3.9c0,6.1,0,12.3-0.1,18.4
	c0,2.1-1.3,3.4-3.4,3.5c-2.2,0.1-3.7-1.1-3.8-3.4c-0.1-3.2,0-6.4,0-9.5c0,0,0,0,0,0C1148.1,47.3,1148.1,44.3,1148.1,41.4z
	 M1112.1,30c-0.7-2.1,0-3.9,2.1-4.7c2.4-1,4.1,0.2,5.1,2.4c3,6.6,5.9,13.2,8.8,19.8c0.4,1,0.7,2.2,1.4,2.8c0.9,0.8,2.3,1.7,3.3,1.6
	c0.8-0.1,2-1.6,2.2-2.6c0.4-3.2,0.3-6.4,0.5-9.6c0.2-6.5,0.5-13,0.7-19.4c0.2-3.6,1.6-5.4,4.1-5.3c2.5,0.1,3.9,1.9,3.9,5.5
	c0,10.3,0.1,20.6-0.1,30.9c0,1-0.8,2.6-1.5,2.8c-7,1.8-14,3.4-21.4,5.1C1118.2,49.2,1115.1,39.6,1112.1,30z M1143.7,96.8
	c-3.5,0-7.1,0.3-10.5-0.3c-8.8-1.6-14.4-6.9-16.7-15.5c-0.9-3.3-1.4-6.7-1.9-10c-0.5-3.1,1.1-6.1,4-6.9c8-2.2,16-4,24.1-5.9
	c0.7,4.2-0.8,7-4.6,8.7c-2.4,1-5,1.8-7.5,2.8c-3.6,1.4-4.5,3.8-2.9,7.4c0.6,1.3,1.1,2.6,1.9,3.7c0.5,0.6,1.5,0.7,2.3,1.1
	c0.3-0.9,1-1.9,0.8-2.7c-0.5-1.7-1.4-3.3-2.3-5.2c5.5-3,12.3-3,15.1-9.1c2,0.8,3.6,1.9,5.4,2.1c1.8,0.2,3.7-0.5,6-0.9
	c2.2,2.8,5.5,3.6,9.3,2.3C1169.6,83.8,1159.3,96.8,1143.7,96.8z"/>
<g>
	<g>
		<path class="st1" d="M873.6,76.3c1.9,2.8,1.4,6.6-1.7,8.6c-3.1,2.1-6.8,1.1-8.7-1.7c-0.8-1.1-1-2.2-1.2-3.2l2.5-1.6
			c0,1.2,0.2,2.1,0.8,3c1.1,1.6,3.1,2.2,4.8,1c1.7-1.1,2-3.2,0.9-4.9c-0.6-1-1.4-1.4-2.5-1.9l2.5-1.7
			C871.9,74.5,872.8,75.1,873.6,76.3z"/>
		<path class="st1" d="M864.7,65.6l0.9,4.2l4.5-0.9l0.6,3L859,74.3l-0.6-3l4.5-0.9l-0.9-4.2l-4.5,0.9l-0.6-3l11.7-2.4l0.6,3
			L864.7,65.6z"/>
		<path class="st1" d="M857,57.4l0.5-3l9.1,1.4l0.7-4.8l2.7,0.4l-1.2,7.8L857,57.4z"/>
		<path class="st1" d="M864.7,47.8c-3.2-1.8-4.1-5.5-2.3-8.5c1.8-3.1,5.3-4.1,8.5-2.3c3.2,1.8,4.1,5.5,2.3,8.5
			C871.5,48.6,867.9,49.6,864.7,47.8z M869.4,39.6c-1.9-1.1-3.8-0.4-4.6,1c-0.8,1.4-0.5,3.4,1.5,4.5c1.9,1.1,3.8,0.4,4.6-1.1
			C871.7,42.7,871.4,40.7,869.4,39.6z"/>
		<path class="st1" d="M870.2,29.5l6.2-4.9l1.7,2.1l-3.8,3l1.2,1.6l3.4-2.7l1.5,1.9l-3.4,2.7l1.3,1.6l3.8-3l1.7,2.1l-6.2,4.9
			L870.2,29.5z M873.2,22.1l-0.1,3.8l-1.7,1.4l-0.4-3.4L873.2,22.1z"/>
		<path class="st1" d="M896.4,25.3l-4.3,0.7l0.7,4.5l-3,0.5L888,19.2l3-0.5l0.7,4.6l4.3-0.7l-0.7-4.6l3-0.5l1.8,11.8l-3,0.5
			L896.4,25.3z"/>
		<path class="st1" d="M905.1,18.1l7.7,1.7l-0.6,2.6l-4.7-1l-0.4,1.9l4.3,0.9l-0.5,2.4l-4.3-0.9l-0.4,2l4.7,1l-0.6,2.6l-7.7-1.7
			L905.1,18.1z"/>
		<path class="st1" d="M917.8,21.9l2.7,1.4l-5.4,10.6l-2.7-1.4L917.8,21.9z"/>
		<path class="st1" d="M925.1,42.4l-2.1-2l1.5-8.5l0,0l-5,5.1l-2.1-2l8.4-8.5l2.1,2l-1.5,8.3l0,0l4.9-5l2.1,2L925.1,42.4z"/>
		<path class="st1" d="M936.7,39.2l1.4,2.7l-10.5,5.6l-1.4-2.7L936.7,39.2z"/>
		<path class="st1" d="M941.6,54.4l-2.6,0.6c0.4-0.9,0.4-2.2,0.2-3.1c-0.2-1-0.7-1.5-1.3-1.4c-0.5,0.1-0.7,0.8-0.8,1.9
			c-0.2,1.7-0.5,3.9-2.8,4.4c-2.2,0.5-4.1-0.8-4.8-3.5c-0.3-1.5-0.2-2.9,0.2-3.9l2.8-0.7c-0.5,1-0.8,2.4-0.5,3.6
			c0.3,1.1,0.9,1.6,1.5,1.5c0.7-0.2,0.8-1,1-2.3c0.2-1.5,0.5-3.5,2.7-4c2-0.5,4,0.8,4.6,3.4C941.9,52.3,941.8,53.4,941.6,54.4z"/>
		<path class="st1" d="M936.4,73.4c-0.4,1.1-1.6,1.7-2.8,1.3c-1.1-0.4-1.7-1.6-1.3-2.8c0.4-1.1,1.6-1.7,2.8-1.3
			C936.2,71,936.8,72.2,936.4,73.4z"/>
		<path class="st1" d="M884.2,96.2c-1.1-0.5-1.6-1.7-1.1-2.8c0.5-1.1,1.7-1.6,2.8-1.1c1.1,0.5,1.6,1.7,1.1,2.8
			C886.6,96.2,885.3,96.7,884.2,96.2z"/>
	</g>
	<g>
		<path class="st1" d="M915.6,95.2c1.1,3.4-0.8,6.5-4.5,7.7l-3.6,1.1L904,92.6l3.6-1.1C911.3,90.3,914.6,91.8,915.6,95.2z
			 M909.6,100.5l0.8-0.3c1.9-0.6,2.9-2.1,2.3-4.1c-0.6-2-2.2-2.7-4.2-2.1l-0.8,0.3L909.6,100.5z"/>
		<path class="st1" d="M928.2,94l-2.3-1.6l-3.4,2.5l0.8,2.7l-2.5,1.9l-3.6-12.2l2.8-2.1l10.7,7L928.2,94z M921.7,92.5l2.1-1.5
			l-3.3-2.2L921.7,92.5z"/>
	</g>
</g>
</svg>
